<?xml version="1.0" encoding="utf-8"?>
<!-- Generator: Adobe Illustrator 24.2.1, SVG Export Plug-In . SVG Version: 6.00 Build 0)  -->
<svg version="1.1" id="Layer_1" xmlns="http://www.w3.org/2000/svg" xmlns:xlink="http://www.w3.org/1999/xlink" x="0px" y="0px"
	 viewBox="0 0 2358.8 796.8" style="enable-background:new 0 0 2358.8 796.8;" xml:space="preserve">
<style type="text/css">
	.st0{fill:#D1D3D4;}
	.st1{fill:#FC6E51;}
</style>
<g id="graph-33">
	<path class="st0" d="M2293.1,149v-3.9h-377.3V10.1h-11.2v134.9h-369.4V10.1h-11.1v134.9h-369.4V10.1h-11.2v134.9H774.1V10.1h-11.2
		v134.9H393.5V10.1h-11.2v134.9H13V0H1.7v792.9H0v3.9h2292.3v-3.9h-376.5V686.6h377.3v-3.9h-377.3V552.2h377.3v-3.9h-377.3V417.8
		h377.3v-3.9h-377.3V283.4h377.3v-3.9h-377.3V149H2293.1z M1524.1,149v130.5h-369.4V149H1524.1z M774.1,548.2V417.8h369.4v130.5
		L774.1,548.2L774.1,548.2z M1143.5,552.2v130.5H774.1V552.2H1143.5z M762.9,548.2H393.5V417.8h369.4L762.9,548.2L762.9,548.2z
		 M774.1,413.8V283.4h369.4v130.4L774.1,413.8L774.1,413.8z M762.9,413.8H393.5V283.4h369.4L762.9,413.8L762.9,413.8z M382.3,413.8
		H13V283.4h369.4V413.8z M382.3,417.8v130.5H13V417.8H382.3z M382.3,552.2v130.5H13V552.2H382.3z M393.5,552.2h369.4v130.5H393.5
		V552.2z M762.9,686.6v106.3H393.5V686.6H762.9z M774.1,686.6h369.4v106.3H774.1V686.6z M1154.7,686.6h369.4v106.3h-369.4V686.6z
		 M1154.7,682.6V552.2h369.4v130.5L1154.7,682.6L1154.7,682.6z M1154.7,548.2V417.8h369.4v130.5L1154.7,548.2L1154.7,548.2z
		 M1154.7,413.8V283.4h369.4v130.4L1154.7,413.8L1154.7,413.8z M1143.5,149v130.5H774.1V149H1143.5z M762.9,149v130.5H393.5V149
		H762.9z M382.3,149v130.5H13V149H382.3z M13,686.6h369.4v106.3H13V686.6z M1904.6,792.9h-369.4V686.6h369.4V792.9z M1904.6,682.6
		h-369.4V552.2h369.4V682.6z M1904.6,548.2h-369.4V417.8h369.4V548.2z M1904.6,413.8h-369.4V283.4h369.4V413.8z M1904.6,279.5
		h-369.4V149h369.4V279.5z"/>
	<path class="st1" d="M2355.1,535.8l-88-34.8c-10.3,0-10.3,0-10.3,0l-191.8-76.8c0,0,0,0-10.3-1.8l-5.1-1.8c0,0,0,0-10.3,0l0,0
		l-5.2,1.8c-5.1,1.8-5.1,1.8-5.1,1.8l-51.9,21.9L1785.2,373c-5.2,0-10.4-1.8-10.4-1.8c-10.4,0-15.7,1.8-26,1.8l-77.7,42.1
		l-331.7-135.4l0,0c0,0-10.4-1.8-10.4-3.7l0,0h-5.1l0,0l0,0c0,0,0,0-10.4,0l0,0c0,1.8-5.2,1.8-5.2,1.8s0,1.8-5.2,1.8l-46.5,20.1
		l-134.8-53.1l0,0l0,0l0,0v-1.8l0,0l0,0c-10.4,0-10.4,0-10.4,0l0,0l0,0h-5.2l0,0l0,0l0,0h-10.3l0,0l0,0l0,0c-5.2,0-5.2,0-5.2,0l0,0
		l0,0v1.8l0,0l0,0l0,0L759.1,385.8l-51.9-22c0-1.8,0-1.8-10.4-1.8l-5.2-1.8l0,0l0,0l0,0c-5.2,0-5.2,0-5.2,0l0,0l0,0
		c-10.4,0-10.4,1.8-10.4,1.8l-5.2,1.8L344.6,501.1L256.4,459c0-3.7-5.2-3.7-15.5-3.7c0,0-15.5,0-15.5,3.7L23.3,535.8
		c-5.2,1.8-5.2,7.3,0,9.2c10.4,3.7,20.7,3.7,31.1,0l186.5-69.5l82.9,40.2c0,1.8,0,1.8,0,1.8c10.4,3.7,25.9,3.7,36.3,0l331.6-137.2
		l51.9,20.1c0,0,0,0,0,1.8l0,0l0,0h5.2l0,0l0,0l0,0c0,0,0,0,10.4,0l0,0l0,0l0,0h5.2l0,0l0,0h5.2l0,0l0,0l0,0c0,0,0,0,0-1.8l0,0
		l336.8-139.1l129.5,54.9v1.8l15.6,1.8c0,0,0,0,5.2,0l0,0l15.5-1.8v-1.8l51.9-20.1l331.6,137.2c0,3.7,15.6,3.7,31.2,0v-1.8
		l88.1-42.1l181.3,71.4c0,0,10.4,3.7,20.8,1.8c0,0,5.2,0,15.6-1.8l57-21.9l62.1,27.4h10.4l196.8,78.7c5.2,3.7,20.7,3.7,25.9,0
		C2360.3,543.2,2360.3,537.7,2355.1,535.8z"/>
</g>
<g id="Layer_1_1_">
</g>
</svg>
