<?xml version="1.0" encoding="utf-8"?>
<!-- Generator: Adobe Illustrator 24.2.1, SVG Export Plug-In . SVG Version: 6.00 Build 0)  -->
<svg version="1.1" id="Layer_1" xmlns="http://www.w3.org/2000/svg" xmlns:xlink="http://www.w3.org/1999/xlink" x="0px" y="0px"
	 viewBox="0 0 512 512" style="enable-background:new 0 0 512 512;" xml:space="preserve">
<style type="text/css">
	.st0{fill:#FFFFFF;}
</style>
<path class="st0" d="M150.2,501.8c0,5.7-4.6,10.2-10.3,10.3H13.6c-5.7,0-10.2-4.6-10.2-10.3l0,0V163.8c0-5.6,4.6-10.2,10.2-10.2
	h126.3c5.7,0,10.2,4.6,10.3,10.2V501.8z"/>
<path class="st0" d="M329.4,501.8c0,5.7-4.6,10.2-10.2,10.3H192.9c-5.7,0-10.2-4.6-10.2-10.3V10.2c0-5.7,4.6-10.2,10.2-10.2h126.3
	c5.7,0,10.2,4.6,10.2,10.2V501.8z"/>
<path class="st0" d="M508.6,501.8c0,5.7-4.6,10.2-10.3,10.3H372c-5.7,0-10.2-4.6-10.2-10.3V266.2c0-5.6,4.6-10.2,10.2-10.2h126.3
	c5.7,0,10.2,4.6,10.3,10.2V501.8z"/>
</svg>
