<?xml version="1.0" encoding="utf-8"?>
<!-- Generator: Adobe Illustrator 24.2.1, SVG Export Plug-In . SVG Version: 6.00 Build 0)  -->
<svg version="1.1" id="Layer_1" xmlns="http://www.w3.org/2000/svg" xmlns:xlink="http://www.w3.org/1999/xlink" x="0px" y="0px"
	 viewBox="0 0 512 512" style="enable-background:new 0 0 512 512;" xml:space="preserve">
<style type="text/css">
	.st0{fill:#FFFFFF;}
</style>
<path class="st0" d="M298,300.4c-4.5-4-9.4-7.4-14.8-10.1c-5.6-2.8-11.3-5.4-17.1-7.7l-0.3,98.1c6.3-1.1,12.4-3,18.1-5.9
	c5.5-2.5,10.5-6,14.7-10.2c4.2-4.2,7.5-9.1,9.8-14.5c2.5-5.8,3.7-12.1,3.6-18.4c0.1-6.2-1.2-12.3-3.8-17.9
	C305.7,308.7,302.2,304.2,298,300.4z"/>
<path class="st0" d="M227.6,135.7c-5,2-9.5,5-13.4,8.6c-3.7,3.6-6.8,7.9-9,12.6c-2.4,5.2-3.6,10.9-3.4,16.6
	c-0.1,6.4,1.1,12.8,3.5,18.7c2.3,5.2,5.5,9.9,9.5,13.9c4.1,4,8.7,7.5,13.8,10.3c5.3,3,10.7,5.7,16.3,8.1l-0.3-93.3
	C238.7,132,233,133.5,227.6,135.7z"/>
<path class="st0" d="M477.7,196.6V128l-59.4-34.3L384,34.3h-68.6L256,0l-59.4,34.3H128L93.7,93.7L34.3,128v68.5L0,256l34.3,59.4V384
	l59.4,34.3l34.3,59.4h68.6L256,512l59.4-34.3H384l34.3-59.4l59.4-34.3v-68.6L512,256L477.7,196.6z M347.1,351.6
	c-4.5,9.6-11,18-19.1,24.9c-8.4,7-17.9,12.5-28.2,16.2c-11,4-22.4,6.7-34,8.1v32.6l-20.4,4.3l-0.3-35.4h-2.3
	c-8.4-0.1-16.7-0.7-25-1.7c-9.6-1.1-18.9-3.4-27.9-6.8c-8.5-3.2-16.3-8.2-22.7-14.6c-6.2-6.3-9.4-14.7-9.4-25
	c-0.2-7.7,3.5-15,9.9-19.3c3.1-2.2,6.6-3.7,10.2-4.7c3.9-1.1,7.9-1.6,12-1.6c4,0,8,0.3,11.9,0.8v8.3c0,14.1,3.6,24.8,10.9,31.9
	c7.3,7.1,18,11.1,32.2,12V276.2c-10.9-4.2-21.5-8.7-31.7-13.6c-9.7-4.6-18.8-10.5-27-17.5c-7.7-6.7-14.1-14.8-18.8-23.8
	c-4.7-9.1-7.1-19.9-7.1-32.4s2.3-23.2,6.8-32.6c4.3-9,10.6-16.9,18.3-23.2c8-6.4,17.1-11.4,26.8-14.6c10.5-3.5,21.3-5.9,32.3-6.9V77
	l22.4-2.7l-0.3,36.3c6.8,0.2,14.7,0.8,23.8,1.8c8.8,1,17.5,3.1,25.8,6.2c7.7,2.9,14.7,7.4,20.5,13.2c5.6,5.8,8.4,13.1,8.4,22.4
	c0.1,3.9-0.9,7.7-2.8,11.1c-1.9,3-4.4,5.5-7.4,7.5c-3.1,2-6.6,3.5-10.2,4.4c-3.8,1-7.7,1.4-11.6,1.4c-3.9,0-7.8-0.3-11.6-0.9v-8
	c0-11.3-3.2-20.1-9.8-26.4s-14.8-10.4-25.1-12.1l-0.3,100c11.6,4.2,22.6,8.7,33.2,13.5c10,4.5,19.5,10.2,28.1,17.1
	c7.9,6.3,14.5,14.1,19.4,23c4.8,8.9,7.2,19.5,7.3,31.8C354.2,330.1,351.9,341.6,347.1,351.6L347.1,351.6z"/>
</svg>
