<?xml version="1.0" encoding="utf-8"?>
<!-- Generator: Adobe Illustrator 24.2.1, SVG Export Plug-In . SVG Version: 6.00 Build 0)  -->
<svg version="1.1" id="Layer_1" xmlns="http://www.w3.org/2000/svg" xmlns:xlink="http://www.w3.org/1999/xlink" x="0px" y="0px"
	 viewBox="0 0 512 512" style="enable-background:new 0 0 512 512;" xml:space="preserve">
<style type="text/css">
	.st0{fill:#FFFFFF;}
</style>
<path class="st0" d="M243.2,294.4c0,7.1-5.7,12.8-12.8,12.8s-12.8-5.7-12.8-12.8c0-7.1,5.7-12.8,12.8-12.8c0,0,0,0,0,0
	C237.5,281.6,243.2,287.3,243.2,294.4z M281.6,281.6c-7.1,0-12.8,5.7-12.8,12.8s5.7,12.8,12.8,12.8s12.8-5.7,12.8-12.8v0
	C294.4,287.3,288.7,281.6,281.6,281.6z M445.5,395.6l-8.8,85.8C435,498.7,418.6,512,399,512c-28.9,0-53.3-16.4-62.4-39.3
	c-52.2,18.3-109,18.3-161.2,0c-9,22.9-33.5,39.3-62.4,39.3l0,0c-19.6,0-36-13.3-37.8-30.7l-8.8-85.8C4.9,318.9-4.6,212.6,42.7,126.3
	C-8,89.6,21.3,15.5,21.3,15.5C95.6-15.8,128.6,6.6,143,27.8c70.7-37.1,155.2-37.1,225.9,0c14.4-21.3,47.5-43.6,121.8-12.4
	c0,0,29.3,74.2-21.5,110.8C516.6,212.6,507.2,318.9,445.5,395.6L445.5,395.6z M320,172.8c0,10.6,8.6,19.2,19.2,19.2
	c10.6,0,19.2-8.6,19.2-19.2c0-10.6-8.6-19.2-19.2-19.2C328.6,153.6,320,162.2,320,172.8C320,172.8,320,172.8,320,172.8z
	 M153.6,172.8c0,10.6,8.6,19.2,19.2,19.2c10.6,0,19.2-8.6,19.2-19.2c0-10.6-8.6-19.2-19.2-19.2l0,0
	C162.2,153.6,153.6,162.2,153.6,172.8z M332.8,294.4c0-27.8-35.2-51.2-76.8-51.2s-76.8,23.4-76.8,51.2s35.2,51.2,76.8,51.2
	S332.8,322.1,332.8,294.4z"/>
</svg>
