<?xml version="1.0" encoding="utf-8"?>
<!-- Generator: Adobe Illustrator 24.2.1, SVG Export Plug-In . SVG Version: 6.00 Build 0)  -->
<svg version="1.1" id="Layer_1" xmlns="http://www.w3.org/2000/svg" xmlns:xlink="http://www.w3.org/1999/xlink" x="0px" y="0px"
	 viewBox="0 0 512 512" style="enable-background:new 0 0 512 512;" xml:space="preserve">
<style type="text/css">
	.st0{fill:#FFFFFF;}
</style>
<path class="st0" d="M175.8,88.4h160.4c0,0,63.6-63.6,34.8-84.3s-92.5,42.6-115,41.1c-22.5,1.5-86.3-61.8-115-41.1
	S175.8,88.4,175.8,88.4z"/>
<path class="st0" d="M184.1,99c-7.9,0.2-14.2,6.8-14,14.8c0.2,7.7,6.4,13.8,14,14h143.8c7.9-0.2,14.2-6.8,14-14.8
	c-0.2-7.7-6.4-13.8-14-14H184.1z"/>
<path class="st0" d="M289.8,324.6c-4.1-3.2-8.5-5.9-13.3-8c-5-2.3-10.2-4.4-15.7-6.4L261,263c4.4,0.6,8.6,2.6,11.9,5.7
	c3.1,3,4.6,7.1,4.6,12.5v3.8c1.8,0.3,3.7,0.4,5.5,0.4c1.8,0,3.7-0.2,5.5-0.7c1.7-0.4,3.4-1.1,4.8-2.1c1.4-0.9,2.6-2.1,3.5-3.6
	c0.9-1.6,1.4-3.4,1.4-5.2c0.1-3.9-1.3-7.7-4-10.6c-2.8-2.7-6.1-4.9-9.7-6.2c-3.9-1.5-8-2.5-12.2-2.9c-4.3-0.5-8-0.8-11.2-0.9
	l0.1-17.1l-10.6,1.2v16.3c-5.2,0.5-10.3,1.6-15.3,3.3c-4.6,1.5-8.9,3.8-12.6,6.9c-3.6,3-6.6,6.7-8.6,11c-2.2,4.8-3.3,10.1-3.2,15.4
	c-0.1,5.3,1,10.5,3.4,15.3c2.2,4.3,5.2,8.1,8.9,11.3c3.9,3.3,8.2,6.1,12.8,8.3c4.8,2.3,9.8,4.5,15,6.4v49.8
	c-6.7-0.5-11.8-2.4-15.2-5.7s-5.2-8.4-5.2-15v-3.9c-1.9-0.3-3.7-0.4-5.6-0.4c-1.9,0-3.8,0.2-5.7,0.8c-1.7,0.4-3.4,1.2-4.9,2.2
	c-1.4,1-2.6,2.3-3.4,3.8c-0.9,1.6-1.3,3.5-1.3,5.4c0,4.9,1.5,8.8,4.4,11.8c3,3,6.7,5.4,10.7,6.9c4.3,1.6,8.7,2.7,13.2,3.2
	c3.9,0.5,7.9,0.8,11.8,0.8h1.1l0.1,16.7l9.6-2v-15.4c5.5-0.7,10.8-2,16-3.9c4.9-1.8,9.4-4.4,13.4-7.8c3.8-3.2,6.9-7.2,9-11.7
	c2.3-5.2,3.5-10.8,3.3-16.5c0.1-5.2-1-10.4-3.4-15C296.6,331.3,293.5,327.6,289.8,324.6z M243,303.2c-2.4-1.3-4.6-2.9-6.5-4.9
	c-4.1-4.1-6.3-9.6-6.1-15.4c0-2.7,0.5-5.4,1.7-7.8c1-2.3,2.5-4.3,4.3-6c1.9-1.7,4-3.1,6.3-4.1c2.6-1.1,5.3-1.8,8-2.1l0.1,44
	C248.1,305.9,245.5,304.6,243,303.2z M280.7,366.3c-1.1,2.6-2.6,4.9-4.6,6.8c-2,2-4.4,3.6-7,4.9c-2.7,1.3-5.6,2.3-8.6,2.8l0.1-46.3
	c2.8,1.1,5.5,2.3,8.1,3.6c2.5,1.3,4.9,2.9,7,4.8c2,1.8,3.6,3.9,4.8,6.3c1.3,2.6,1.9,5.5,1.8,8.5
	C282.5,360.6,281.9,363.5,280.7,366.3L280.7,366.3z"/>
<path class="st0" d="M336.2,138.3H175.8c-71.3,52-121.1,162.1-121.1,232C54.7,464.3,144.8,512,256,512s201.3-47.7,201.3-141.7
	C457.3,300.4,407.5,190.2,336.2,138.3z M256,430.9c-60.2,0-109-48.8-109-109s48.8-109,109-109s109,48.8,109,109l0,0
	C365,382,316.2,430.9,256,430.9z"/>
</svg>
